<mxfile host="app.diagrams.net" modified="2020-09-29T16:40:15.840Z" agent="5.0 (Macintosh; Intel Mac OS X 10_15_4) AppleWebKit/537.36 (KHTML, like Gecko) Chrome/85.0.4183.102 Safari/537.36" etag="HhnvdRsG6NflX62kldBF" version="13.7.6" type="github">
  <diagram id="TdSOI1s8rqD7VlisKgjt" name="Page-1">
    <mxGraphModel dx="805" dy="569" grid="1" gridSize="10" guides="1" tooltips="1" connect="1" arrows="1" fold="1" page="1" pageScale="1" pageWidth="827" pageHeight="1169" math="0" shadow="0">
      <root>
        <mxCell id="0" />
        <mxCell id="1" parent="0" />
        <mxCell id="5MbmHAuOFMyMYG0PuLiY-1" value="" style="ellipse;html=1;shape=startState;fillColor=#000000;strokeColor=#ff0000;" parent="1" vertex="1">
          <mxGeometry x="355" y="20" width="30" height="30" as="geometry" />
        </mxCell>
        <mxCell id="5MbmHAuOFMyMYG0PuLiY-2" value="" style="edgeStyle=orthogonalEdgeStyle;html=1;verticalAlign=bottom;endArrow=open;endSize=8;strokeColor=#ff0000;entryX=0.5;entryY=0;entryDx=0;entryDy=0;" parent="1" source="5MbmHAuOFMyMYG0PuLiY-1" target="5MbmHAuOFMyMYG0PuLiY-4" edge="1">
          <mxGeometry relative="1" as="geometry">
            <mxPoint x="111" y="130" as="targetPoint" />
          </mxGeometry>
        </mxCell>
        <mxCell id="5MbmHAuOFMyMYG0PuLiY-25" value="" style="edgeStyle=orthogonalEdgeStyle;rounded=0;orthogonalLoop=1;jettySize=auto;html=1;" parent="1" source="5MbmHAuOFMyMYG0PuLiY-3" target="5MbmHAuOFMyMYG0PuLiY-23" edge="1">
          <mxGeometry relative="1" as="geometry">
            <Array as="points">
              <mxPoint x="210" y="437" />
              <mxPoint x="210" y="375" />
            </Array>
          </mxGeometry>
        </mxCell>
        <mxCell id="5MbmHAuOFMyMYG0PuLiY-3" value="Printer is connected to server" style="ellipse;whiteSpace=wrap;html=1;" parent="1" vertex="1">
          <mxGeometry x="300" y="402" width="140" height="70" as="geometry" />
        </mxCell>
        <mxCell id="5MbmHAuOFMyMYG0PuLiY-10" value="" style="edgeStyle=orthogonalEdgeStyle;rounded=0;orthogonalLoop=1;jettySize=auto;html=1;" parent="1" source="5MbmHAuOFMyMYG0PuLiY-4" target="5MbmHAuOFMyMYG0PuLiY-5" edge="1">
          <mxGeometry relative="1" as="geometry" />
        </mxCell>
        <mxCell id="5MbmHAuOFMyMYG0PuLiY-4" value="Doc has been sent &lt;br&gt;to the printer" style="ellipse;whiteSpace=wrap;html=1;" parent="1" vertex="1">
          <mxGeometry x="300" y="120" width="140" height="70" as="geometry" />
        </mxCell>
        <mxCell id="5MbmHAuOFMyMYG0PuLiY-11" value="" style="edgeStyle=orthogonalEdgeStyle;rounded=0;orthogonalLoop=1;jettySize=auto;html=1;" parent="1" edge="1">
          <mxGeometry relative="1" as="geometry">
            <Array as="points">
              <mxPoint x="300" y="150" />
              <mxPoint x="133" y="150" />
            </Array>
            <mxPoint x="300" y="150" as="sourcePoint" />
            <mxPoint x="133" y="250" as="targetPoint" />
          </mxGeometry>
        </mxCell>
        <mxCell id="5MbmHAuOFMyMYG0PuLiY-36" value="" style="edgeStyle=orthogonalEdgeStyle;rounded=0;orthogonalLoop=1;jettySize=auto;html=1;entryX=0.5;entryY=1;entryDx=0;entryDy=0;exitX=1;exitY=0.5;exitDx=0;exitDy=0;" parent="1" source="5MbmHAuOFMyMYG0PuLiY-3" target="5MbmHAuOFMyMYG0PuLiY-34" edge="1">
          <mxGeometry relative="1" as="geometry">
            <mxPoint x="520" y="296" as="targetPoint" />
            <Array as="points">
              <mxPoint x="440" y="440" />
              <mxPoint x="620" y="440" />
            </Array>
          </mxGeometry>
        </mxCell>
        <mxCell id="5MbmHAuOFMyMYG0PuLiY-5" value="User authentification by PIN" style="ellipse;whiteSpace=wrap;html=1;" parent="1" vertex="1">
          <mxGeometry x="300" y="261" width="140" height="70" as="geometry" />
        </mxCell>
        <mxCell id="5MbmHAuOFMyMYG0PuLiY-6" value="" style="ellipse;html=1;shape=endState;fillColor=#000000;strokeColor=#ff0000;" parent="1" vertex="1">
          <mxGeometry x="358" y="851" width="30" height="30" as="geometry" />
        </mxCell>
        <mxCell id="5MbmHAuOFMyMYG0PuLiY-22" value="" style="edgeStyle=orthogonalEdgeStyle;rounded=0;orthogonalLoop=1;jettySize=auto;html=1;exitX=0;exitY=1;exitDx=0;exitDy=0;entryX=0.357;entryY=1.014;entryDx=0;entryDy=0;entryPerimeter=0;" parent="1" source="5MbmHAuOFMyMYG0PuLiY-7" target="zwiA7uc9-c87CCUc2sQi-4" edge="1">
          <mxGeometry relative="1" as="geometry">
            <Array as="points">
              <mxPoint x="322" y="640" />
              <mxPoint x="95" y="640" />
            </Array>
            <mxPoint x="140" y="590" as="targetPoint" />
          </mxGeometry>
        </mxCell>
        <mxCell id="5MbmHAuOFMyMYG0PuLiY-32" value="" style="edgeStyle=orthogonalEdgeStyle;rounded=0;orthogonalLoop=1;jettySize=auto;html=1;entryX=0.636;entryY=1;entryDx=0;entryDy=0;entryPerimeter=0;" parent="1" source="5MbmHAuOFMyMYG0PuLiY-7" target="zwiA7uc9-c87CCUc2sQi-4" edge="1">
          <mxGeometry relative="1" as="geometry">
            <mxPoint x="160" y="551" as="targetPoint" />
            <Array as="points">
              <mxPoint x="133" y="577" />
              <mxPoint x="133" y="560" />
              <mxPoint x="135" y="560" />
              <mxPoint x="135" y="551" />
              <mxPoint x="134" y="551" />
            </Array>
          </mxGeometry>
        </mxCell>
        <mxCell id="5MbmHAuOFMyMYG0PuLiY-42" value="" style="edgeStyle=orthogonalEdgeStyle;rounded=0;orthogonalLoop=1;jettySize=auto;html=1;entryX=1;entryY=0.5;entryDx=0;entryDy=0;" parent="1" source="5MbmHAuOFMyMYG0PuLiY-7" target="5MbmHAuOFMyMYG0PuLiY-34" edge="1">
          <mxGeometry relative="1" as="geometry">
            <mxPoint x="521" y="605" as="targetPoint" />
          </mxGeometry>
        </mxCell>
        <mxCell id="5MbmHAuOFMyMYG0PuLiY-7" value="document has been chosen" style="ellipse;whiteSpace=wrap;html=1;" parent="1" vertex="1">
          <mxGeometry x="301" y="570" width="140" height="70" as="geometry" />
        </mxCell>
        <mxCell id="5MbmHAuOFMyMYG0PuLiY-9" value="Create &lt;br&gt;document" style="text;html=1;align=center;verticalAlign=middle;resizable=0;points=[];autosize=1;rotation=90;" parent="1" vertex="1">
          <mxGeometry x="360" y="65" width="70" height="30" as="geometry" />
        </mxCell>
        <mxCell id="5MbmHAuOFMyMYG0PuLiY-12" value="Enter PIN" style="text;html=1;align=center;verticalAlign=middle;resizable=0;points=[];autosize=1;rotation=90;" parent="1" vertex="1">
          <mxGeometry x="354" y="215" width="70" height="20" as="geometry" />
        </mxCell>
        <mxCell id="5MbmHAuOFMyMYG0PuLiY-13" value="invalid PIN" style="text;html=1;align=center;verticalAlign=middle;resizable=0;points=[];autosize=1;rotation=0;" parent="1" vertex="1">
          <mxGeometry x="185" y="130" width="70" height="20" as="geometry" />
        </mxCell>
        <mxCell id="5MbmHAuOFMyMYG0PuLiY-14" value="" style="edgeStyle=orthogonalEdgeStyle;rounded=0;orthogonalLoop=1;jettySize=auto;html=1;" parent="1" edge="1">
          <mxGeometry relative="1" as="geometry">
            <mxPoint x="370" y="331" as="sourcePoint" />
            <mxPoint x="370" y="402" as="targetPoint" />
          </mxGeometry>
        </mxCell>
        <mxCell id="5MbmHAuOFMyMYG0PuLiY-15" value="Connecting&lt;br&gt;&amp;nbsp;to server" style="text;html=1;align=center;verticalAlign=middle;resizable=0;points=[];autosize=1;rotation=90;" parent="1" vertex="1">
          <mxGeometry x="349" y="351" width="80" height="30" as="geometry" />
        </mxCell>
        <mxCell id="5MbmHAuOFMyMYG0PuLiY-17" value="no connection &lt;br&gt;to server" style="text;html=1;align=center;verticalAlign=middle;resizable=0;points=[];autosize=1;rotation=0;" parent="1" vertex="1">
          <mxGeometry x="212" y="402" width="90" height="30" as="geometry" />
        </mxCell>
        <mxCell id="5MbmHAuOFMyMYG0PuLiY-18" value="" style="edgeStyle=orthogonalEdgeStyle;rounded=0;orthogonalLoop=1;jettySize=auto;html=1;entryX=0.5;entryY=0;entryDx=0;entryDy=0;" parent="1" target="5MbmHAuOFMyMYG0PuLiY-7" edge="1">
          <mxGeometry relative="1" as="geometry">
            <mxPoint x="371" y="472" as="sourcePoint" />
            <mxPoint x="371" y="530" as="targetPoint" />
          </mxGeometry>
        </mxCell>
        <mxCell id="5MbmHAuOFMyMYG0PuLiY-19" value="choosing the &lt;br&gt;document to print" style="text;html=1;align=center;verticalAlign=middle;resizable=0;points=[];autosize=1;rotation=90;" parent="1" vertex="1">
          <mxGeometry x="340" y="505" width="110" height="30" as="geometry" />
        </mxCell>
        <mxCell id="5MbmHAuOFMyMYG0PuLiY-21" value="cartridge is empty" style="text;html=1;align=center;verticalAlign=middle;resizable=0;points=[];autosize=1;rotation=0;" parent="1" vertex="1">
          <mxGeometry x="165" y="620" width="110" height="20" as="geometry" />
        </mxCell>
        <mxCell id="5MbmHAuOFMyMYG0PuLiY-23" value="canceled by system" style="ellipse;whiteSpace=wrap;html=1;" parent="1" vertex="1">
          <mxGeometry x="63" y="340" width="140" height="70" as="geometry" />
        </mxCell>
        <mxCell id="5MbmHAuOFMyMYG0PuLiY-29" value="" style="edgeStyle=orthogonalEdgeStyle;rounded=0;orthogonalLoop=1;jettySize=auto;html=1;" parent="1" edge="1">
          <mxGeometry relative="1" as="geometry">
            <mxPoint x="64" y="378" as="sourcePoint" />
            <mxPoint x="30" y="310" as="targetPoint" />
            <Array as="points">
              <mxPoint x="64" y="310" />
            </Array>
          </mxGeometry>
        </mxCell>
        <mxCell id="5MbmHAuOFMyMYG0PuLiY-33" value="tray out of paper" style="text;html=1;align=center;verticalAlign=middle;resizable=0;points=[];autosize=1;rotation=0;" parent="1" vertex="1">
          <mxGeometry x="170" y="553" width="100" height="20" as="geometry" />
        </mxCell>
        <mxCell id="5MbmHAuOFMyMYG0PuLiY-46" value="" style="edgeStyle=orthogonalEdgeStyle;rounded=0;orthogonalLoop=1;jettySize=auto;html=1;" parent="1" source="5MbmHAuOFMyMYG0PuLiY-34" edge="1">
          <mxGeometry relative="1" as="geometry">
            <mxPoint x="620" y="280" as="targetPoint" />
          </mxGeometry>
        </mxCell>
        <mxCell id="5MbmHAuOFMyMYG0PuLiY-34" value="canceled by user" style="ellipse;whiteSpace=wrap;html=1;" parent="1" vertex="1">
          <mxGeometry x="550" y="340" width="140" height="70" as="geometry" />
        </mxCell>
        <mxCell id="5MbmHAuOFMyMYG0PuLiY-37" value="cancel" style="text;html=1;align=center;verticalAlign=middle;resizable=0;points=[];autosize=1;rotation=0;" parent="1" vertex="1">
          <mxGeometry x="490" y="420" width="50" height="20" as="geometry" />
        </mxCell>
        <mxCell id="5MbmHAuOFMyMYG0PuLiY-38" value="document is printed" style="ellipse;whiteSpace=wrap;html=1;" parent="1" vertex="1">
          <mxGeometry x="302" y="710" width="140" height="70" as="geometry" />
        </mxCell>
        <mxCell id="5MbmHAuOFMyMYG0PuLiY-39" value="" style="edgeStyle=orthogonalEdgeStyle;rounded=0;orthogonalLoop=1;jettySize=auto;html=1;" parent="1" edge="1">
          <mxGeometry relative="1" as="geometry">
            <mxPoint x="371" y="640" as="sourcePoint" />
            <mxPoint x="371" y="711" as="targetPoint" />
          </mxGeometry>
        </mxCell>
        <mxCell id="5MbmHAuOFMyMYG0PuLiY-40" value="printing&amp;nbsp;the &lt;br&gt;document" style="text;html=1;align=center;verticalAlign=middle;resizable=0;points=[];autosize=1;rotation=90;" parent="1" vertex="1">
          <mxGeometry x="355" y="660" width="70" height="30" as="geometry" />
        </mxCell>
        <mxCell id="5MbmHAuOFMyMYG0PuLiY-43" value="cancel" style="text;html=1;align=center;verticalAlign=middle;resizable=0;points=[];autosize=1;rotation=0;" parent="1" vertex="1">
          <mxGeometry x="530" y="585" width="50" height="20" as="geometry" />
        </mxCell>
        <mxCell id="5MbmHAuOFMyMYG0PuLiY-44" value="" style="edgeStyle=orthogonalEdgeStyle;rounded=0;orthogonalLoop=1;jettySize=auto;html=1;" parent="1" edge="1">
          <mxGeometry relative="1" as="geometry">
            <mxPoint x="371.5" y="780" as="sourcePoint" />
            <mxPoint x="371.5" y="851" as="targetPoint" />
          </mxGeometry>
        </mxCell>
        <mxCell id="5MbmHAuOFMyMYG0PuLiY-47" value="" style="ellipse;html=1;shape=endState;fillColor=#000000;strokeColor=#ff0000;" parent="1" vertex="1">
          <mxGeometry x="605" y="250" width="30" height="30" as="geometry" />
        </mxCell>
        <mxCell id="5MbmHAuOFMyMYG0PuLiY-48" value="" style="ellipse;html=1;shape=endState;fillColor=#000000;strokeColor=#ff0000;" parent="1" vertex="1">
          <mxGeometry y="297" width="30" height="30" as="geometry" />
        </mxCell>
        <mxCell id="zwiA7uc9-c87CCUc2sQi-2" value="" style="edgeStyle=orthogonalEdgeStyle;rounded=0;orthogonalLoop=1;jettySize=auto;html=1;exitX=1;exitY=0.5;exitDx=0;exitDy=0;" parent="1" source="zwiA7uc9-c87CCUc2sQi-1" target="5MbmHAuOFMyMYG0PuLiY-5" edge="1">
          <mxGeometry relative="1" as="geometry">
            <mxPoint x="181.9897948556636" y="264" as="sourcePoint" />
            <mxPoint x="320.5025253169417" y="275.25126265847086" as="targetPoint" />
            <Array as="points" />
          </mxGeometry>
        </mxCell>
        <mxCell id="zwiA7uc9-c87CCUc2sQi-1" value="canceled by system" style="ellipse;whiteSpace=wrap;html=1;" parent="1" vertex="1">
          <mxGeometry x="63" y="250" width="140" height="70" as="geometry" />
        </mxCell>
        <mxCell id="zwiA7uc9-c87CCUc2sQi-3" value="re-Enter PIN" style="text;html=1;align=center;verticalAlign=middle;resizable=0;points=[];autosize=1;rotation=0;" parent="1" vertex="1">
          <mxGeometry x="220" y="261" width="80" height="20" as="geometry" />
        </mxCell>
        <mxCell id="zwiA7uc9-c87CCUc2sQi-4" value="canceled by system" style="ellipse;whiteSpace=wrap;html=1;" parent="1" vertex="1">
          <mxGeometry x="45" y="472" width="140" height="70" as="geometry" />
        </mxCell>
        <mxCell id="zwiA7uc9-c87CCUc2sQi-5" value="" style="edgeStyle=orthogonalEdgeStyle;rounded=0;orthogonalLoop=1;jettySize=auto;html=1;" parent="1" edge="1">
          <mxGeometry relative="1" as="geometry">
            <mxPoint x="190" y="510" as="sourcePoint" />
            <mxPoint x="352" y="570" as="targetPoint" />
            <Array as="points" />
          </mxGeometry>
        </mxCell>
        <mxCell id="zwiA7uc9-c87CCUc2sQi-6" value="fill tray with paper/&lt;br&gt;fill cartridge" style="text;html=1;align=center;verticalAlign=middle;resizable=0;points=[];autosize=1;rotation=0;" parent="1" vertex="1">
          <mxGeometry x="205" y="479.5" width="110" height="30" as="geometry" />
        </mxCell>
      </root>
    </mxGraphModel>
  </diagram>
</mxfile>
